<?xml version="1.0" encoding="utf-8"?>
<svg xmlns="http://www.w3.org/2000/svg" viewBox="0 0 500 500">
  <path d="M -6 -6 L 506 -6 L 506 506 L -6 506 L -6 -6 Z" fill="#000" fill-opacity="1" style="stroke-width: 1;"/>
  <g class="" style="" transform="matrix(1, 0, 0, 1, -6.019997, -6.000001)">
    <path d="M 256 25 C 217.654 25 185 63.034 185 112 C 185 160.966 217.654 199 256 199 C 294.346 199 327 160.966 327 112 C 327 63.034 294.346 25 256 25 Z M 298.6 204.273 C 286.025 212.368 271.546 217 256 217 C 240.483 217 226.03 212.385 213.473 204.318 C 169.135 212.031 141.105 233.382 121.983 270.152 C 98.098 316.09 89.592 388.232 89.1 487 L 135 487 L 153 487 L 359 487 L 377 487 L 422.94 487 C 422.65 395.622 417.856 323.5 395.828 275.77 C 384.448 251.113 368.86 232.872 346.588 220.344 C 333.301 212.87 317.464 207.447 298.6 204.274 L 298.6 204.273 Z" fill="#fff" fill-opacity="1"/>
    <g style="" transform="matrix(1.214993, 0, 0, 1.214993, -54.674131, -41.349138)">
      <ellipse style="stroke: rgb(0, 0, 0); fill: none; stroke-width: 25px;" cx="255.871" cy="323.201" rx="76.218" ry="76.218"/>
      <rect x="243.168" y="224.887" width="27.715" height="195.741" style=""/>
      <rect x="190.625" y="223.276" width="27.715" height="195.741" style="stroke-width: 1; transform-box: fill-box; transform-origin: 50% 50%;" transform="matrix(0, 1, -1, 0, 51.234293, 1.477154)"/>
    </g>
  </g>
</svg>