<svg xmlns="http://www.w3.org/2000/svg" viewBox="0 0 512 512" style="height: 512px; width: 512px;"><path d="M0 0h512v512H0z" fill="#000" fill-opacity="1"></path><g class="" transform="translate(0,0)" style=""><g transform="translate(0, 0) scale(1, 1) rotate(90, 256, 256) skewX(0) skewY(0)"><path d="M225.814 32.316C221.859 32.302 217.892 32.306 213.914 32.323C194.767 32.412 175.314 32.915 155.695 33.643L161.371 58.536C181.802 56.226 204.201 54.506 226.598 53.646C238.732 53.18 250.792 52.934 262.49 52.996C297.585 53.179 329.427 56.126 350.26 64.198L359.168 67.652L355.191 76.337C326.13 139.822 319.409 201.069 323.963 261.163C326.211 189.845 355.856 126.413 394.773 45.095C341.817 36.295 285.139 32.513 225.814 32.315Z" class="" fill="#fff" fill-opacity="1"></path><path d="M253.848 71.106C245.108 71.113 236.198 71.29 227.289 71.632C185.617 73.232 144.09 78.122 117.025 83.728C147.258 139.807 171.715 196.015 187.508 250.81C189.472 250.744 191.439 250.759 193.402 250.855C197.42 251.052 201.394 251.597 205.277 252.445C189.202 201.048 170.892 153.645 148.131 106.314L142.988 95.62L154.674 93.552C184.03 88.354 214.33 86.342 243.168 86.333C245.09 86.333 247.008 86.34 248.916 86.357C267.24 86.517 284.9 87.465 301.262 88.892L312.316 89.857L309.092 100.474C290.392 162.037 286.729 228.152 297.302 291.056C297.478 291.219 297.656 291.381 297.828 291.546C301.641 290.21 305.208 288.848 308.533 287.392C300.279 219.998 303.936 150.469 334.762 78.191C317.56 73.808 291.337 71.517 262.523 71.157C259.632 71.121 256.74 71.105 253.848 71.107Z" class="" fill="#fff" fill-opacity="1"></path><path d="M398.793 78.491C367.837 144.047 345.85 196.581 342.246 253.294C362.284 186.492 401.015 126.609 445.15 88.136C429.83 84.315 414.366 81.097 398.793 78.491Z" class="" fill="#fff" fill-opacity="1"></path><path d="M103.832 97.02C85.072 100.888 66.746 105.798 49.02 112.582C57.646 120.062 73.24 133.977 92.16 152.471C100.868 143.508 109.749 134.653 119.012 126.601C114.106 116.662 109.045 106.801 103.832 97.02Z" class="" fill="#000000" fill-opacity="1"></path><path d="M245.855 104.502C232.235 104.436 218.293 104.826 204.301 105.795C202.833 119.477 194.741 132.277 185.076 144.865C200.507 181.334 213.834 218.548 225.832 258.059C244.207 263.479 262.386 269.886 277.112 277.563C271.642 235.105 272.39 191.6 279.492 149.055C266.607 135.745 259.895 120.965 259.357 104.715C254.857 104.595 250.356 104.524 245.855 104.502Z" class="" fill="#fff" fill-opacity="1"></path><path d="M427.873 131.487C403.143 160.787 381.352 197.484 366.503 237.399C393.767 198.617 427.293 168.367 462.98 146.999C451.354 141.658 439.65 136.487 427.873 131.487Z" class="" fill="#fff" fill-opacity="1"></path><path d="M127.133 143.446C112.539 156.634 98.119 172.463 83.102 187.543C115.391 206.734 142.893 229.461 165.328 255.203C166.721 254.677 168.128 254.204 169.543 253.773C159.045 217.677 144.658 180.74 127.133 143.446Z" class="selected" fill="#000000" fill-opacity="1"></path><path d="M360.52 268.198C344.123 287.986 328.686 298.433 307.43 306.768C309.821 315.988 306.27 326.573 298.096 334.669C293.288 339.43 287.246 344.857 278.412 348.384C279.687 349.139 280.987 349.848 282.312 350.511C294.676 356.681 316.519 354.691 336.812 345.462C357.042 336.262 375.114 320.37 381.812 304.271C385.169 295.221 382.772 290.501 376.895 283.579C372.711 278.654 366.6 273.689 360.52 268.199Z" class="" fill="#fff" fill-opacity="1"></path><path d="M190.441 268.784C179.726 268.686 168.844 271.778 159.851 278.544C147.061 288.167 137.201 305.328 137.113 334.478L137.113 334.678L137.103 334.878C134.183 396.259 138.703 424.578 147.658 439.943C155.562 453.505 168.708 459.997 187.938 471.937C188.854 469.531 189.808 466.572 190.703 462.839C192.98 453.34 194.864 440.294 196.058 425.864C198.447 397.006 198.098 362.354 194.103 337.419L191.992 324.229L205.008 327.224C236.623 334.497 254.708 335.356 265.208 333.504C275.71 331.65 279.269 327.981 285.429 321.88C291.219 316.148 291.111 314.085 289.885 310.859C288.658 307.632 283.736 302.314 275.385 297.226C258.682 287.05 230.3 277.615 203.771 270.579C199.42 269.427 194.942 268.824 190.441 268.784Z" class="" fill="#fff" fill-opacity="1"></path><path d="M379.541 338.2C369.528 347.954 357.206 355.961 344.264 361.847C323.281 371.389 300.201 375.754 281.053 369.4C274.293 371.916 270.366 374.807 268.385 377.2C265.667 380.484 265.497 382.9 266.418 386.36C267.338 389.82 270.083 393.928 273.477 396.884C276.87 399.84 280.903 401.376 282.436 401.448C329.23 403.67 349.482 390.241 374.713 374.665C382.071 370.123 384.887 360.922 384.182 351.734C383.829 347.14 382.492 342.823 380.949 340.104C380.565 339.41 380.092 338.77 379.541 338.2Z" class="" fill="#fff" fill-opacity="1"></path><path d="M213.354 347.296C216.081 372.364 216.126 401.61 213.996 427.349C212.749 442.421 210.821 456.128 208.207 467.034C207.07 471.78 205.819 475.988 204.307 479.693L351.004 473.228C349.348 467.079 347.66 460.904 345.973 454.726C340.337 456.602 334.576 458.08 328.733 459.15L328.777 459.88L320.461 460.398C315.34 461.012 310.009 461.351 304.478 461.39L220.618 466.6L223.111 454.993C231.058 417.987 231.791 385.404 226.889 349.759C222.361 349.026 217.849 348.205 213.353 347.296Z" class="" fill="#fff" fill-opacity="1"></path><path d="M245.326 351.98C249.274 383.913 248.799 414.39 242.92 447.18L262.184 445.984C259.163 441.526 257.087 436.497 256.084 431.206C254.788 424.326 255.509 416.668 260.01 410.336C260.209 410.055 260.424 409.786 260.637 409.515C255.391 404.67 251.009 398.453 249.023 390.991C246.909 383.047 248.229 373.321 254.52 365.721C256.599 363.211 259.112 360.945 262.063 358.905C259.453 356.825 257.165 354.62 255.189 352.323C252.125 352.344 248.844 352.23 245.326 351.98Z" class="" fill="#fff" fill-opacity="1"></path><path d="M377.992 393.765C354.536 408.018 328.182 421.641 281.582 419.429C280.061 419.355 278.549 419.149 277.064 418.814C275.831 419.367 275.173 420.07 274.682 420.761C273.719 422.116 273.15 424.561 273.773 427.874C275.021 434.501 281.298 441.763 287.143 442.443C328.528 447.256 357.122 433.717 374.484 417.966C382.484 410.708 382.552 406.066 381.374 401.015C380.784 398.492 379.484 396.046 377.992 393.765Z" class="" fill="#fff" fill-opacity="1"></path><path d="M371.309 442.827C368.531 444.568 365.679 446.19 362.762 447.687C364.412 453.738 366.066 459.789 367.699 465.841L387.619 462.269C382.479 457.882 378.457 453.315 375.229 448.773C373.787 446.744 372.516 444.772 371.309 442.827Z" class="" fill="#fff" fill-opacity="1"></path></g></g></svg>