<?xml version="1.0" encoding="utf-8"?>
<svg xmlns="http://www.w3.org/2000/svg" viewBox="0 0 512 512" width="512" height="512" xmlns:bx="https://boxy-svg.com">
  <defs>
    <bx:export>
      <bx:file format="svg" path="Bez nazwy.svg"/>
    </bx:export>
    <bx:export>
      <bx:file format="svg" path="Bez nazwy.svg"/>
    </bx:export>
  </defs>
  <path d="M0 0h512v512H0z" fill="#000"/>
  <g class="" style="" transform="matrix(0.778759, 0, 0, 0.906357, 60.008634, 29.874598)">
    <path d="M 191.636 1.226 C 93.592 14.258 2.546 81.247 56.375 229.094 C 79.091 291.487 68.783 362.904 104.907 413.156 C 141.03 463.406 156.065 496.126 253.563 496.126 C 353.519 496.126 366.603 463.406 402.727 413.156 C 438.85 362.906 428.146 291.528 450.75 229.094 C 500.276 92.301 406.587 12.338 304.337 1.031 C 285.396 -1.064 269.272 -3.202 241.654 -3.001 C 217.75 -2.827 208.555 -1.023 191.636 1.226 Z M 229.942 102.525 C 232.443 102.731 219.602 115.923 233.013 124.346 C 184.051 127.636 154.197 129.141 105.867 156.169 C 95.646 138.455 90.445 82.048 143.057 62.95 C 157.319 71.495 208.57 101.962 229.942 102.525 Z M 272.634 101.681 C 304.319 100.796 351.242 67.318 360.902 60.45 C 404.026 75.234 407.239 135.507 398.089 155.253 C 349.707 129.913 317.481 127.851 270.531 124.346 C 279.721 116.79 270.282 97.976 272.634 101.681 Z M 253.562 205.604 C 298.219 205.604 339.237 190.724 370.187 208.213 C 401.137 225.703 395.077 252.387 395.077 293.995 C 395.077 335.602 402.814 372.615 372.938 410.844 C 343.06 449.072 301.138 468.201 253.563 468.201 C 205.988 468.201 164.066 449.072 134.188 410.844 C 104.308 372.614 110.758 336.156 110.758 294.549 C 110.758 252.942 106.018 223.898 136.971 206.408 C 167.921 188.918 208.907 205.604 253.564 205.604 L 253.562 205.604 Z M 253.562 219.759 C 210.762 219.759 172.559 203.24 146.156 218.157 C 138.619 222.417 132.003 227.254 126.376 232.814 C 126.969 252.424 143.329 306.231 167.126 243.392 L 184.852 287.632 L 207.696 245.656 C 213.789 246.668 220.522 291.866 228.73 292.458 C 240.82 293.329 253.804 253.749 253.804 253.749 C 262.41 253.749 267.3 292.868 274.948 292.336 C 283.225 291.76 291.187 249.622 297.243 246.164 C 297.243 246.164 314.314 288.555 323.119 286.632 C 333.678 284.325 340.171 244.259 340.78 244.695 C 368.573 305.202 385.497 253.733 381.062 234.901 C 375.378 229.221 368.662 224.291 361 219.961 C 334.598 205.044 296.363 219.758 253.562 219.758 L 253.562 219.759 Z" fill="#fff" fill-opacity="1"/>
    <path d="M 153.047 357.742 C 160.505 383.277 130.89 384.915 150.043 405.853 C 179.885 436.146 215.598 455.748 253.197 455.748 C 288.852 455.748 326.901 439.436 356.003 406.227 C 372.889 386.959 348.181 375.335 348.542 356.434 C 348.572 354.878 335.182 355.647 329.694 354.156 C 322.285 390.628 336.826 396.189 320.262 402.312 C 320.262 402.312 315.37 363.095 302.884 366.257 C 297.085 367.725 299.002 414.044 291.689 415.156 C 288.04 415.711 279.31 371.369 272.522 372.425 C 264.738 373.636 260.085 420.768 255.448 420.768 C 250.085 420.768 243.634 373.002 235.733 372.291 C 229.281 371.71 219.323 415.505 215.256 414.823 C 207.126 413.461 210.206 367.841 203.97 366.203 C 193.201 363.374 186.551 393.777 186.551 393.777 C 153.101 378.721 179.41 373.28 169.629 353.085 L 153.047 357.742 Z" fill="#fff" fill-opacity="1" style="stroke-width: 1;"/>
  </g>
  <path style="stroke-width: 1;" d="M 223.631 174.802 C 226.769 178.452 246.355 194.195 246.355 194.195 C 246.355 194.195 245.975 158.934 232.72 158.934"/>
  <path d="M 106.59 203.044 C 103.745 260.52 113.462 279.251 100.021 283.748 C 86.58 288.245 78.413 228.747 67.398 212.378 C 56.383 196.009 66.445 159.59 74.556 136.969 C 82.667 114.348 109.434 145.568 106.59 203.044 Z" style="fill: rgb(255, 255, 255); stroke-width: 1; transform-origin: 27.26px 206.603px;"/>
  <path d="M 407.643 203.545 C 410.488 261.021 400.771 279.753 414.213 284.249 C 427.653 288.746 435.85 229.248 446.835 212.879 C 457.82 196.51 446.775 163.042 439.677 137.471 C 432.579 111.9 404.799 146.07 407.643 203.545 Z" style="fill: rgb(255, 255, 255); stroke-width: 1; transform-origin: 420.177px 207.106px;"/>
  <ellipse style="fill: rgb(255, 255, 255); stroke-width: 1;" cx="184.619" cy="129.617" rx="9.545" ry="12.586"/>
  <ellipse style="fill: rgb(255, 255, 255); stroke-width: 1; transform-box: fill-box; transform-origin: 50% 50%;" cx="325.379" cy="129.347" rx="9.545" ry="12.586"/>
  <path style="fill: rgb(255, 255, 255); stroke-width: 1; transform-origin: 191.919px 372.695px;" d="M 208.296 406.374 C 211.052 423.06 167.319 424.449 172.198 365.1 C 174.376 338.6 185.244 310.208 191.631 309.026 C 197.829 309.559 205.541 389.686 208.296 406.374 Z"/>
  <path style="fill: rgb(255, 255, 255); stroke-width: 1; transform-origin: 321.827px 373.443px;" d="M 305.45 407.307 C 302.694 423.993 346.427 425.382 341.548 366.033 C 339.37 339.534 328.502 311.142 322.115 309.96 C 315.917 310.493 308.205 390.619 305.45 407.307 Z"/>
  <path style="stroke-width: 1; transform-box: fill-box; transform-origin: 50% 50%;" d="M 267.218 178.082 C 270.356 174.432 289.942 158.689 289.942 158.689 C 289.942 158.689 289.562 193.95 276.307 193.95" transform="matrix(-1, 0, 0, -1, -0.000065, 0.000026)"/>
</svg>