<?xml version="1.0" encoding="utf-8"?>
<svg xmlns="http://www.w3.org/2000/svg" viewBox="0 0 512 512" width="512" height="512" xmlns:bx="https://boxy-svg.com">
  <defs>
    <bx:export>
      <bx:file format="svg" path="Bez nazwy.svg"/>
    </bx:export>
    <bx:export>
      <bx:file format="svg" path="Bez nazwy.svg"/>
    </bx:export>
    <bx:export>
      <bx:file format="svg" path="Bez nazwy.svg"/>
    </bx:export>
    <bx:export>
      <bx:file format="svg" path="Bez nazwy.svg"/>
    </bx:export>
    <bx:export>
      <bx:file format="svg" path="Bez nazwy.svg"/>
    </bx:export>
  </defs>
  <g id="svg1" transform="matrix(1, 0, 0, 1, -461.943861, -305.231912)">
    <g id="g1090" transform="matrix(1, 0, 0, 1, 553.390336, 382.11842)">
      <path d="M 153.69 -46.821 C 175.197 -47.003 187.754 -45.065 202.505 -43.166 C 282.133 -32.918 355.094 39.557 316.525 163.54 C 298.922 220.128 307.258 284.822 279.127 330.366 C 250.995 375.911 240.806 405.567 162.964 405.567 C 87.036 405.567 75.328 375.911 47.197 330.366 C 19.065 284.82 27.092 220.091 9.402 163.54 C -32.518 29.538 38.385 -31.178 114.738 -42.99 C 127.913 -45.028 135.074 -46.663 153.69 -46.821 Z M 76.906 12.954 C 35.934 30.264 39.985 81.389 47.944 97.444 C 85.582 72.947 108.831 71.583 146.96 68.601 C 136.516 60.967 146.516 49.01 144.569 48.824 C 127.925 48.313 88.013 20.699 76.906 12.954 Z M 176.178 68.601 C 212.741 71.778 237.837 73.647 275.515 96.614 C 282.64 78.717 280.138 24.088 246.555 10.689 C 239.032 16.913 202.491 47.256 177.816 48.059 C 175.984 44.7 183.335 61.753 176.178 68.601 Z M 162.963 142.25 C 128.187 142.249 96.269 127.126 72.167 142.979 C 48.062 158.831 51.753 185.155 51.753 222.866 C 51.753 260.577 46.73 293.621 70 328.271 C 93.267 362.919 125.914 380.257 162.964 380.257 C 200.013 380.257 232.66 362.919 255.928 328.271 C 279.194 293.621 273.169 260.074 273.169 222.364 C 273.169 184.652 277.888 160.467 253.786 144.615 C 229.683 128.763 197.741 142.249 162.965 142.25 Z M 162.963 155.078 C 196.295 155.078 226.071 141.742 246.631 155.262 C 252.598 159.187 257.828 163.655 262.255 168.803 C 265.709 185.872 252.529 232.521 230.885 177.68 C 230.411 177.285 225.354 213.599 217.131 215.69 C 210.274 217.433 196.98 179.012 196.98 179.012 C 192.264 182.146 186.063 220.338 179.618 220.86 C 173.662 221.342 169.854 185.886 163.152 185.886 C 163.152 185.886 153.04 221.76 143.625 220.971 C 137.233 220.434 131.99 179.469 127.245 178.551 L 109.455 216.597 L 95.65 176.499 C 77.118 233.454 64.378 184.686 63.916 166.912 C 68.298 161.873 73.45 157.488 79.32 153.627 C 99.881 140.107 129.632 155.079 162.963 155.079 Z M 129.122 100.827 C 132.26 104.477 151.846 120.22 151.846 120.22 C 151.846 120.22 151.466 84.959 138.211 84.959 Z M 186.344 84.714 C 173.089 84.714 172.709 119.975 172.709 119.975 C 172.709 119.975 192.295 104.232 195.433 100.582 Z" fill-opacity="1" style="stroke-width: 0.843;"/>
      <path d="M 12.081 129.069 C 9.236 186.545 18.953 205.276 5.512 209.773 C -7.929 214.27 -16.096 154.772 -27.111 138.403 C -38.126 122.034 -28.064 85.615 -19.953 62.994 C -11.842 40.373 14.925 71.593 12.081 129.069 Z" style="stroke-width: 1; transform-origin: -67.249px 132.628px;"/>
      <path d="M 313.134 129.57 C 315.979 187.046 306.262 205.778 319.704 210.274 C 333.144 214.771 341.341 155.273 352.326 138.904 C 363.311 122.535 352.266 89.067 345.168 63.496 C 338.07 37.925 310.29 72.095 313.134 129.57 Z" style="stroke-width: 1; transform-origin: 325.668px 133.131px;"/>
      <ellipse style="stroke-width: 1;" cx="90.11" cy="55.642" rx="9.545" ry="12.586"/>
      <ellipse style="stroke-width: 1; transform-box: fill-box; transform-origin: 50% 50%;" cx="230.87" cy="55.372" rx="9.545" ry="12.586"/>
      <path style="stroke-width: 1; transform-origin: 97.41px 298.72px;" d="M 113.787 332.399 C 116.543 349.085 72.81 350.474 77.689 291.125 C 79.867 264.625 90.735 236.233 97.122 235.051 C 103.32 235.584 111.032 315.711 113.787 332.399 Z"/>
      <path style="stroke-width: 1; transform-origin: 227.318px 299.468px;" d="M 210.941 333.332 C 208.185 350.018 251.918 351.407 247.039 292.058 C 244.861 265.559 233.993 237.167 227.606 235.985 C 221.408 236.518 213.696 316.644 210.941 333.332 Z"/>
      <g class="" style="" transform="matrix(0.778759, 0, 0, 0.906357, 318.461588, -361.221019)">
        <path d="M -299.85 700.71 C -292.39 726.245 -322.01 727.883 -302.85 748.821 C -273.01 779.114 -237.3 798.716 -199.7 798.716 C -164.04 798.716 -126 782.404 -96.894 749.195 C -80.008 729.927 -104.72 718.303 -104.36 699.402 C -104.33 697.846 -117.72 698.615 -123.2 697.124 C -130.61 733.596 -116.07 739.157 -132.63 745.28 C -132.63 745.28 -137.53 706.063 -150.01 709.225 C -155.81 710.693 -153.9 757.012 -161.21 758.124 C -164.85 758.679 -173.59 714.337 -180.37 715.393 C -188.16 716.604 -192.81 763.736 -197.45 763.736 C -202.81 763.736 -209.26 715.97 -217.16 715.259 C -223.61 714.678 -233.57 758.473 -237.64 757.791 C -245.77 756.429 -242.69 710.809 -248.92 709.171 C -259.69 706.342 -266.34 736.745 -266.34 736.745 C -299.79 721.689 -273.48 716.248 -283.27 696.053 L -299.85 700.71 Z" fill-opacity="1" style="stroke-width: 1;"/>
      </g>
    </g>
  </g>
</svg>